HIERARCHY
ROOT Hips
{
    OFFSET 0.000000 0.000000 0.000000
    CHANNELS 6 Xposition Yposition Zposition Zrotation Xrotation Yrotation
    JOINT Spine
    {
        OFFSET -0.000000 14.517291 0.000000
        CHANNELS 3 Zrotation Xrotation Yrotation
        JOINT Spine1
        {
            OFFSET -0.000000 37.558300 0.000000
            CHANNELS 3 Zrotation Xrotation Yrotation
            JOINT Neck
            {
                OFFSET -0.000000 37.404057 3.400369
                CHANNELS 3 Zrotation Xrotation Yrotation
                JOINT Head
                {
                    OFFSET -0.000000 24.785618 -3.540803
                    CHANNELS 3 Zrotation Xrotation Yrotation
                    End Site
                    {
                        OFFSET -0.000000 35.408028 0.000000
                    }
                }
            }
            JOINT LeftShoulder
            {
                OFFSET 6.992933 33.973492 -0.192664
                CHANNELS 3 Zrotation Xrotation Yrotation
                JOINT LeftArm
                {
                    OFFSET 21.527611 0.000000 0.000000
                    CHANNELS 3 Zrotation Xrotation Yrotation
                    JOINT LeftForeArm
                    {
                        OFFSET 56.353916 0.000000 0.000000
                        CHANNELS 3 Zrotation Xrotation Yrotation
                        JOINT LeftHand
                        {
                            OFFSET 47.774071 0.000000 0.000000
                            CHANNELS 3 Zrotation Xrotation Yrotation
                            End Site
                            {
                                OFFSET 26.556021 0.000000 0.000000
                            }
                        }
                    }
                }
            }
            JOINT RightShoulder
            {
                OFFSET -7.065357 33.973492 -0.192664
                CHANNELS 3 Zrotation Xrotation Yrotation
                JOINT RightArm
                {
                    OFFSET -21.527611 0.000000 0.000000
                    CHANNELS 3 Zrotation Xrotation Yrotation
                    JOINT RightForeArm
                    {
                        OFFSET -56.353916 0.000000 0.000000
                        CHANNELS 3 Zrotation Xrotation Yrotation
                        JOINT RightHand
                        {
                            OFFSET -47.774071 0.000000 0.000000
                            CHANNELS 3 Zrotation Xrotation Yrotation
                            End Site
                            {
                                OFFSET -26.556021 0.000000 0.000000
                            }
                        }
                    }
                }
            }
        }
    }
    JOINT LeftUpLeg
    {
        OFFSET 17.704014 0.000000 0.000000
        CHANNELS 3 Zrotation Xrotation Yrotation
        JOINT LeftLeg
        {
            OFFSET -0.000000 -81.181816 0.000000
            CHANNELS 3 Zrotation Xrotation Yrotation
            JOINT LeftFoot
            {
                OFFSET -0.000000 -62.821102 0.000000
                CHANNELS 3 Zrotation Xrotation Yrotation
                JOINT LeftToeBase
                {
                    OFFSET -0.000000 -11.507608 26.556021
                    CHANNELS 3 Zrotation Xrotation Yrotation
                    End Site
                    {
                        OFFSET -0.000000 0.000000 7.081605
                    }
                }
            }
        }
    }
    JOINT RightUpLeg
    {
        OFFSET -17.704014 0.000000 0.000000
        CHANNELS 3 Zrotation Xrotation Yrotation
        JOINT RightLeg
        {
            OFFSET -0.000000 -81.181816 0.000000
            CHANNELS 3 Zrotation Xrotation Yrotation
            JOINT RightFoot
            {
                OFFSET -0.000000 -62.821102 0.000000
                CHANNELS 3 Zrotation Xrotation Yrotation
                JOINT RightToeBase
                {
                    OFFSET -0.000000 -11.507608 26.556021
                    CHANNELS 3 Zrotation Xrotation Yrotation
                    End Site
                    {
                        OFFSET -0.000000 0.000000 7.081605
                    }
                }
            }
        }
    }
}
MOTION
Frames:    13
Frame Time:    0.008333
13.408261    155.459549    -118.547348    -1.410086    -5.168581    41.107170    -0.817736    -2.996737    -1.351090    -4.787290    4.750619    -0.246961    -6.958161    -0.285215    -21.655060    22.545218    4.592792    -19.331902    8.248919    3.783568    -22.855955    -30.021061    25.606081    -49.702808    -14.044643    1.080699    -106.723099    -1.706885    -17.680546    -7.159220    -11.741334    -0.866998    -1.976741    24.489515    -4.462159    61.362713    2.524621    -14.376806    11.902780    5.250039    -13.596255    22.975143    19.090067    -1.917816    1.776944    -13.605043    34.378815    -18.207521    3.768625    -28.075516    43.541798    0.000000    0.000000    0.000000    -16.214598    -17.527636    -12.406985    8.282529    20.409714    -15.302618    4.791317    10.664778    -13.439304    0.000000    0.000000    0.000000    
13.351023    155.461685    -118.512131    -1.407467    -5.195443    41.182472    -0.767297    -2.988666    -1.343121    -4.843143    4.720257    -0.243698    -6.975345    -0.327222    -21.670485    22.549337    4.697412    -19.363392    8.241125    3.808175    -22.832668    -29.998669    25.609528    -49.735439    -14.082870    1.129852    -106.709816    -1.718332    -17.679388    -7.172777    -11.982223    -1.058427    -1.923959    24.577604    -5.142567    61.825539    2.628261    -14.135492    12.231877    5.151967    -13.386124    23.092997    19.134468    -1.931624    1.727229    -13.600488    34.375748    -18.240019    3.775277    -28.050585    43.543842    0.000000    0.000000    0.000000    -16.196676    -17.498598    -12.420951    8.298575    20.436605    -15.348886    4.784873    10.634032    -13.441383    0.000000    0.000000    0.000000    
13.294341    155.463654    -118.479012    -1.402291    -5.224501    41.255466    -0.726677    -2.978777    -1.320419    -4.888078    4.700639    -0.235606    -7.001414    -0.354146    -21.700006    22.578945    4.785760    -19.403704    8.228287    3.814697    -22.837597    -30.224955    25.302015    -49.655670    -14.361075    1.709189    -106.562073    -1.620413    -17.453867    -7.198946    -12.211080    -1.276932    -1.908144    24.692226    -5.834886    62.296516    2.780712    -13.921873    12.558747    5.106278    -13.202570    23.139454    19.176430    -1.943159    1.687244    -13.580934    34.379707    -18.320391    3.753915    -28.049133    43.566696    0.000000    0.000000    0.000000    -16.182940    -17.467445    -12.440307    8.321503    20.470211    -15.394127    4.778833    10.596511    -13.437579    0.000000    0.000000    0.000000    
13.234326    155.467545    -118.449913    -1.399267    -5.246505    41.324631    -0.678729    -2.977669    -1.292709    -4.950722    4.681695    -0.225061    -7.039968    -0.361784    -21.731588    22.635714    4.872035    -19.442532    8.222282    3.806066    -22.865803    -30.235853    25.305540    -49.628151    -14.375274    1.742985    -106.553123    -1.732159    -17.430397    -7.224293    -12.428944    -1.488591    -1.860425    24.670670    -6.393346    62.726246    2.755749    -13.816212    12.863310    5.135609    -13.087606    23.308340    19.214767    -1.956074    1.638214    -13.578366    34.367710    -18.336456    3.735474    -28.032192    43.558159    0.000000    0.000000    0.000000    -16.169189    -17.447929    -12.449036    8.337091    20.506657    -15.395385    4.790006    10.565633    -13.486910    0.000000    0.000000    0.000000    
13.179386    155.472641    -118.422333    -1.396781    -5.263875    41.387794    -0.636332    -2.965958    -1.247381    -4.997252    4.637031    -0.210232    -7.091480    -0.345620    -21.772758    22.694504    4.938904    -19.487034    8.199973    3.810587    -22.912931    -30.233801    25.362455    -49.573605    -13.978299    1.439586    -106.448776    -3.044376    -17.065903    -7.593546    -12.697355    -1.724987    -1.837910    24.715330    -6.924051    63.113022    2.775585    -13.700888    13.237328    5.068679    -12.993570    23.374580    19.247786    -1.964913    1.617672    -13.551348    34.350067    -18.390114    3.715040    -28.015455    43.555092    0.000000    0.000000    0.000000    -16.160667    -17.433565    -12.492290    8.349646    20.547131    -15.375595    4.788734    10.531919    -13.530653    0.000000    0.000000    0.000000    
13.128919    155.477325    -118.392136    -1.389418    -5.292956    41.459755    -0.590716    -2.945147    -1.207077    -5.050409    4.602017    -0.196620    -7.101422    -0.348715    -21.817949    22.715939    5.005797    -19.544643    8.201777    3.829746    -22.950897    -30.232216    25.371737    -49.579250    -13.991938    1.475609    -106.450607    -3.001323    -17.053129    -7.590333    -12.946223    -1.941410    -1.823567    24.753853    -7.498757    63.512623    2.824650    -13.605534    13.583306    5.060945    -12.907190    23.514177    19.284506    -1.963657    1.579095    -13.533013    34.331249    -18.414854    3.665457    -28.015812    43.524036    0.000000    0.000000    0.000000    -16.149887    -17.401226    -12.543534    8.354310    20.586443    -15.344174    4.786046    10.505146    -13.554132    0.000000    0.000000    0.000000    
13.078041    155.484390    -118.361664    -1.380056    -5.305146    41.533981    -0.560560    -2.932937    -1.169884    -5.114981    4.563439    -0.183737    -7.069242    -0.379873    -21.840263    22.693001    5.088353    -19.589989    8.213736    3.846208    -22.980547    -30.246971    25.361923    -49.590618    -14.020325    1.555723    -106.433113    -2.927905    -17.013281    -7.584710    -13.164418    -2.152210    -1.823551    24.754902    -8.034567    63.915028    2.838714    -13.520742    13.953436    5.091757    -12.822801    23.597839    19.305088    -1.977626    1.562988    -13.490900    34.318470    -18.457554    3.626746    -27.992947    43.486511    0.000000    0.000000    0.000000    -16.153879    -17.380445    -12.600919    8.366219    20.622431    -15.340879    4.774948    10.478476    -13.576738    0.000000    0.000000    0.000000    
13.026610    155.491669    -118.329529    -1.368828    -5.314785    41.609737    -0.530577    -2.928538    -1.139060    -5.191320    4.533510    -0.171979    -7.064217    -0.403054    -21.865980    22.717438    5.186211    -19.633959    8.228017    3.855789    -23.011993    -30.277620    25.342001    -49.578220    -14.049685    1.647555    -106.411247    -2.891527    -16.959225    -7.593781    -13.368896    -2.384716    -1.822743    24.747547    -8.521339    64.326935    2.825303    -13.488805    14.292622    5.066039    -12.797850    23.706141    19.324190    -1.993251    1.539304    -13.459084    34.300713    -18.474850    3.583438    -27.963558    43.444077    0.000000    0.000000    0.000000    -16.161415    -17.361055    -12.649694    8.376307    20.665697    -15.345147    4.780833    10.444448    -13.581309    0.000000    0.000000    0.000000    
12.971337    155.498779    -118.299469    -1.361288    -5.326045    41.677242    -0.505559    -2.923709    -1.108541    -5.238836    4.499212    -0.161671    -7.073365    -0.396861    -21.892204    22.737917    5.260398    -19.673786    8.207909    3.884070    -23.028666    -30.229013    25.367373    -49.600296    -14.043066    1.640196    -106.419945    -2.840005    -16.964010    -7.580664    -13.610635    -2.619130    -1.816255    24.842228    -9.074871    64.744354    2.885406    -13.375939    14.630578    5.025953    -12.704123    23.807724    19.351702    -2.009877    1.507435    -13.442117    34.286919    -18.493259    3.536144    -27.939440    43.402225    0.000000    0.000000    0.000000    -16.161261    -17.346073    -12.676278    8.398848    20.698973    -15.371741    4.781033    10.417551    -13.607029    0.000000    0.000000    0.000000    
12.923841    155.504639    -118.271767    -1.359028    -5.330161    41.754757    -0.486312    -2.913393    -1.073148    -5.278924    4.439648    -0.151306    -7.095161    -0.384385    -21.927477    22.776838    5.343667    -19.721827    8.175313    3.962470    -23.056068    -30.139015    25.401564    -49.654427    -14.023301    1.571436    -106.444084    -2.816631    -17.013271    -7.574427    -13.824791    -2.821838    -1.824420    24.900446    -9.602796    65.142029    2.889658    -13.273367    15.017608    4.950341    -12.626672    23.816948    19.374487    -2.042682    1.457604    -13.437655    34.284470    -18.505535    3.526874    -27.909712    43.393414    0.000000    0.000000    0.000000    -16.169529    -17.329037    -12.721738    8.417410    20.727356    -15.378690    4.764550    10.384801    -13.613150    0.000000    0.000000    0.000000    
12.877596    155.513870    -118.237808    -1.356421    -5.346159    41.829422    -0.447208    -2.902941    -1.039498    -5.353540    4.399084    -0.139451    -7.063248    -0.391634    -21.958473    22.776245    5.420229    -19.774698    8.184510    3.988343    -23.107611    -30.168980    25.387835    -49.632389    -14.036422    1.617259    -106.440689    -2.820946    -16.985712    -7.569342    -13.968234    -2.965996    -1.833815    24.867706    -10.184550    65.573639    2.924147    -13.200265    15.394926    4.838819    -12.588932    23.850250    19.404194    -2.058567    1.395174    -13.432560    34.267365    -18.541964    3.493068    -27.901228    43.411160    0.000000    0.000000    0.000000    -16.164789    -17.301596    -12.766490    8.428429    20.754206    -15.401545    4.763741    10.356160    -13.611517    0.000000    0.000000    0.000000    
12.829103    155.523849    -118.199089    -1.361626    -5.357449    41.906826    -0.411560    -2.903459    -1.005576    -5.430727    4.365199    -0.127034    -7.008354    -0.444219    -21.985849    22.738625    5.540729    -19.836576    8.203503    3.983753    -23.150049    -30.216806    25.384426    -49.615078    -14.084846    1.700720    -106.421440    -2.766569    -16.967520    -7.555020    -14.170432    -3.225123    -1.843407    24.931496    -10.637175    65.929489    2.931488    -13.101170    15.757271    4.764071    -12.509802    23.978374    19.440735    -2.081582    1.320253    -13.441326    34.246548    -18.553318    3.464693    -27.882568    43.412006    0.000000    0.000000    0.000000    -16.157516    -17.281754    -12.807006    8.446250    20.780758    -15.414816    4.747829    10.328145    -13.619181    0.000000    0.000000    0.000000    
12.782067    155.537476    -118.157448    -1.369907    -5.380505    41.983349    -0.350028    -2.911817    -0.977857    -5.529597    4.349330    -0.115244    -6.951637    -0.471678    -22.007156    22.715929    5.624362    -19.885130    8.222307    3.992954    -23.171768    -30.222229    25.389015    -49.624809    -14.104624    1.740100    -106.404999    -2.721769    -16.953974    -7.528220    -14.385008    -3.487577    -1.863600    25.100174    -11.142165    66.333992    3.003652    -12.937690    16.099976    4.696737    -12.375251    24.059420    19.485310    -2.096771    1.250367    -13.446236    34.222507    -18.551701    3.444002    -27.860313    43.411686    0.000000    0.000000    0.000000    -16.134806    -17.252779    -12.846987    8.452851    20.801531    -15.437071    4.757948    10.316107    -13.632472    0.000000    0.000000    0.000000    
